<?xml version="1.0" encoding="UTF-8"?>
<svg id="Layer_2" data-name="Layer 2" xmlns="http://www.w3.org/2000/svg" viewBox="0 0 707.08 631.43">
  <defs>
    <style>
      .cls-1 {
        fill: #fff;
      }
    </style>
  </defs>
  <polygon class="cls-1" points="606.49 434.33 606.49 522.65 707.08 488.72 707.08 400.4 606.49 434.33"/>
  <polygon class="cls-1" points="567.85 535.68 567.79 535.49 568.03 535.49 568.03 134.52 467.44 168.46 467.44 464.41 384.61 492.36 384.61 391.66 284.02 425.6 284.02 631.43 567.85 535.68"/>
  <polygon class="cls-1" points="568.03 98.55 568.03 0 467.44 0 467.44 132.48 568.03 98.55"/>
  <polygon class="cls-1" points="281.06 0 191.3 207.26 100.59 .05 100.59 0 100.57 0 97.83 0 0 0 0 535.55 100.59 569.48 100.59 250.57 176.54 423.81 210.93 412.2 284.02 245.71 284.02 388.62 384.61 354.69 384.61 0 281.06 0"/>
</svg>